<svg width="318" height="329" viewBox="0 0 318 329" fill="none" xmlns="http://www.w3.org/2000/svg">
<ellipse cx="167.331" cy="60.1005" rx="128" ry="32" fill="#936E37"/>
<ellipse cx="170.424" cy="179.675" rx="174.914" ry="34.1006" transform="rotate(-45.4505 170.424 179.675)" fill="#936E37"/>
<ellipse cx="51.3314" cy="177.101" rx="129" ry="32" transform="rotate(-90 51.3314 177.101)" fill="#936E37"/>
<ellipse cx="141.479" cy="142.665" rx="129.317" ry="71.6251" transform="rotate(-45.8329 141.479 142.665)" fill="#936E37"/>
<ellipse cx="77.8314" cy="97.6005" rx="38.5" ry="37.5" fill="#936E37"/>
<ellipse cx="160.865" cy="168.473" rx="107.5" ry="82.8625" transform="rotate(-48.6101 160.865 168.473)" fill="#936E37"/>
<path d="M217.467 199L150.733 135.3C157.333 119.2 153.667 100.3 139.733 87.0001C125.067 73.0001 103.067 70.2001 85.4667 77.9001L117 108L95 129L62.7333 98.9001C53.9333 115.7 57.6 136.7 72.2667 150.7C86.2 164 106 167.5 122.867 161.2L189.6 224.9C192.533 227.7 196.933 227.7 199.867 224.9L216.733 208.8C220.4 206 220.4 201.1 217.467 199Z" fill="white"/>
</svg>
