<svg width="318" height="329" viewBox="0 0 318 329" fill="none" xmlns="http://www.w3.org/2000/svg">
<ellipse cx="167.331" cy="60.1005" rx="128" ry="32" fill="#386D9D"/>
<ellipse cx="170.424" cy="179.675" rx="174.914" ry="34.1006" transform="rotate(-45.4505 170.424 179.675)" fill="#386D9D"/>
<ellipse cx="51.3314" cy="177.101" rx="129" ry="32" transform="rotate(-90 51.3314 177.101)" fill="#386D9D"/>
<ellipse cx="141.479" cy="142.665" rx="129.317" ry="71.6251" transform="rotate(-45.8329 141.479 142.665)" fill="#386D9D"/>
<ellipse cx="77.8314" cy="97.6005" rx="38.5" ry="37.5" fill="#386D9D"/>
<ellipse cx="160.865" cy="168.473" rx="107.5" ry="82.8625" transform="rotate(-48.6101 160.865 168.473)" fill="#386D9D"/>
<path d="M70 193.739V208.25C70 220.246 94.0195 230 123.625 230C153.23 230 177.25 220.246 177.25 208.25V193.739C165.715 203.628 144.628 208.25 123.625 208.25C102.622 208.25 81.535 203.628 70 193.739ZM159.375 99.5C188.98 99.5 213 89.7465 213 77.75C213 65.7535 188.98 56 159.375 56C129.77 56 105.75 65.7535 105.75 77.75C105.75 89.7465 129.77 99.5 159.375 99.5ZM70 158.089V175.625C70 187.621 94.0195 197.375 123.625 197.375C153.23 197.375 177.25 187.621 177.25 175.625V158.089C165.715 169.644 144.6 175.625 123.625 175.625C102.65 175.625 81.535 169.644 70 158.089ZM186.188 161.827C202.191 158.055 213 151.054 213 143V128.489C206.52 134.062 196.996 137.868 186.188 140.213V161.827ZM123.625 110.375C94.0195 110.375 70 122.541 70 137.562C70 152.584 94.0195 164.75 123.625 164.75C153.23 164.75 177.25 152.584 177.25 137.562C177.25 122.541 153.23 110.375 123.625 110.375ZM184.875 129.508C201.633 125.838 213 118.633 213 110.375V95.8637C203.085 104.394 186.048 108.982 168.117 110.069C176.356 114.929 182.417 121.454 184.875 129.508Z" fill="white"/>
</svg>
