<svg width="318" height="329" viewBox="0 0 318 329" fill="none" xmlns="http://www.w3.org/2000/svg">
<ellipse cx="167.331" cy="60.1005" rx="128" ry="32" fill="#8B918B"/>
<ellipse cx="170.424" cy="179.675" rx="174.914" ry="34.1006" transform="rotate(-45.4505 170.424 179.675)" fill="#8B918B"/>
<ellipse cx="51.3314" cy="177.101" rx="129" ry="32" transform="rotate(-90 51.3314 177.101)" fill="#8B918B"/>
<ellipse cx="141.479" cy="142.665" rx="129.317" ry="71.6251" transform="rotate(-45.8329 141.479 142.665)" fill="#8B918B"/>
<ellipse cx="77.8314" cy="97.6005" rx="38.5" ry="37.5" fill="#8B918B"/>
<ellipse cx="160.865" cy="168.473" rx="107.5" ry="82.8625" transform="rotate(-48.6101 160.865 168.473)" fill="#8B918B"/>
<path d="M85.9157 171.627L145.627 111.916L181.689 147.978L121.978 207.689L85.9157 171.627ZM178.586 115.019C183.565 119.998 191.612 120.025 196.558 115.078L214.59 133.109C219.569 138.089 219.595 146.135 214.648 151.082L125.082 240.648C120.135 245.595 112.089 245.569 107.109 240.59L89.0781 222.558C94.0248 217.612 93.9984 209.565 89.0191 204.586C84.0399 199.607 75.9935 199.58 71.0468 204.527L53.0156 186.496C48.0364 181.517 48.01 173.47 52.9567 168.524L142.524 78.9567C147.47 74.01 155.517 74.0364 160.496 79.0156L178.527 97.0468C173.58 101.994 173.607 110.04 178.586 115.019ZM150.095 104.442C147.606 101.952 143.583 101.939 141.109 104.413L78.4125 167.109C75.9392 169.583 75.9524 173.606 78.442 176.095L117.51 215.163C119.999 217.653 124.022 217.666 126.496 215.193L189.193 152.496C191.666 150.022 191.653 145.999 189.163 143.51L150.095 104.442Z" fill="white"/>
</svg>
