<svg width="318" height="329" viewBox="0 0 318 329" fill="none" xmlns="http://www.w3.org/2000/svg">
<ellipse cx="167.331" cy="60.1005" rx="128" ry="32" fill="#FA8080"/>
<ellipse cx="170.424" cy="179.675" rx="174.914" ry="34.1006" transform="rotate(-45.4505 170.424 179.675)" fill="#FA8080"/>
<ellipse cx="51.3314" cy="177.101" rx="129" ry="32" transform="rotate(-90 51.3314 177.101)" fill="#FA8080"/>
<ellipse cx="141.479" cy="142.665" rx="129.317" ry="71.6251" transform="rotate(-45.8329 141.479 142.665)" fill="#FA8080"/>
<ellipse cx="77.8314" cy="97.6005" rx="38.5" ry="37.5" fill="#FA8080"/>
<ellipse cx="160.865" cy="168.473" rx="107.5" ry="82.8625" transform="rotate(-48.6101 160.865 168.473)" fill="#FA8080"/>
<path d="M196.831 99.8505H86.8314C79.2689 99.8505 73.1502 106.038 73.1502 113.601L73.0814 237.351L100.581 209.851H196.831C204.394 209.851 210.581 203.663 210.581 196.101V113.601C210.581 106.038 204.394 99.8505 196.831 99.8505ZM100.581 147.976H183.081V161.726H100.581V147.976ZM155.581 182.351H100.581V168.601H155.581V182.351ZM183.081 141.101H100.581V127.351H183.081V141.101Z" fill="white"/>
</svg>
