<svg width="318" height="329" viewBox="0 0 318 329" fill="none" xmlns="http://www.w3.org/2000/svg">
<ellipse cx="167.331" cy="60.1005" rx="128" ry="32" fill="#E1098B"/>
<ellipse cx="170.424" cy="179.675" rx="174.914" ry="34.1006" transform="rotate(-45.4505 170.424 179.675)" fill="#E1098B"/>
<ellipse cx="51.3314" cy="177.101" rx="129" ry="32" transform="rotate(-90 51.3314 177.101)" fill="#E1098B"/>
<ellipse cx="141.479" cy="142.665" rx="129.317" ry="71.6251" transform="rotate(-45.8329 141.479 142.665)" fill="#E1098B"/>
<ellipse cx="77.8314" cy="97.6005" rx="38.5" ry="37.5" fill="#E1098B"/>
<ellipse cx="160.865" cy="168.473" rx="107.5" ry="82.8625" transform="rotate(-48.6101 160.865 168.473)" fill="#E1098B"/>
<path d="M215 137.938C215 130.461 211.65 124.003 206.722 120.497V72.1282C206.722 69.3596 204.917 62 198.444 62C196.603 62 194.774 62.753 193.276 64.2212L171.28 85.7463C160.232 96.5484 146.362 102.5 132.222 102.5H82.5556C73.4112 102.5 66 111.565 66 122.75V153.125C66 164.31 73.4112 173.375 82.5556 173.375H91.2731C90.9135 176.691 90.7092 180.064 90.7092 183.5C90.7092 196.083 93.1045 207.974 97.321 218.602C98.6636 221.984 101.594 224 104.668 224H123.882C130.621 224 134.667 214.558 130.582 208.003C126.34 201.193 123.818 192.701 123.818 183.5C123.818 179.985 124.237 176.606 124.958 173.375H132.222C146.362 173.375 160.232 179.327 171.278 190.129L193.273 211.654C194.74 213.09 196.563 213.873 198.442 213.875C204.888 213.875 206.72 206.667 206.72 203.75V155.381C211.65 151.872 215 145.414 215 137.938ZM190.167 182.684L181.617 174.318C167.649 160.649 150.102 153.125 132.222 153.125V122.75C150.102 122.75 167.649 115.226 181.617 101.557L190.167 93.1913V182.684Z" fill="white"/>
</svg>
