<svg width="318" height="329" viewBox="0 0 318 329" fill="none" xmlns="http://www.w3.org/2000/svg">
<ellipse cx="167.331" cy="60.1005" rx="128" ry="32" fill="#E1D909"/>
<ellipse cx="170.424" cy="179.675" rx="174.914" ry="34.1006" transform="rotate(-45.4505 170.424 179.675)" fill="#E1D909"/>
<ellipse cx="51.3314" cy="177.101" rx="129" ry="32" transform="rotate(-90 51.3314 177.101)" fill="#E1D909"/>
<ellipse cx="141.479" cy="142.665" rx="129.317" ry="71.6251" transform="rotate(-45.8329 141.479 142.665)" fill="#E1D909"/>
<ellipse cx="77.8314" cy="97.6005" rx="38.5" ry="37.5" fill="#E1D909"/>
<ellipse cx="160.865" cy="168.473" rx="107.5" ry="82.8625" transform="rotate(-48.6101 160.865 168.473)" fill="#E1D909"/>
<path d="M208.418 177.448C198.065 177.448 188.049 175.765 178.707 172.735C175.761 171.725 172.478 172.483 170.206 174.755L156.992 191.336C133.172 179.973 110.868 158.511 99.0008 133.85L115.413 119.878C117.686 117.522 118.359 114.239 117.433 111.293C114.319 101.951 112.72 91.935 112.72 81.5825C112.72 77.0375 108.933 73.25 104.388 73.25H75.2658C70.7208 73.25 65.25 75.27 65.25 81.5825C65.25 159.773 130.311 224.75 208.418 224.75C214.393 224.75 216.75 219.448 216.75 214.818V185.781C216.75 181.236 212.963 177.448 208.418 177.448Z" fill="white"/>
</svg>
