<svg width="318" height="329" viewBox="0 0 318 329" fill="none" xmlns="http://www.w3.org/2000/svg">
<ellipse cx="167.331" cy="60.1005" rx="128" ry="32" fill="#6FCA6D"/>
<ellipse cx="170.424" cy="179.675" rx="174.914" ry="34.1006" transform="rotate(-45.4505 170.424 179.675)" fill="#6FCA6D"/>
<ellipse cx="51.3314" cy="177.101" rx="129" ry="32" transform="rotate(-90 51.3314 177.101)" fill="#6FCA6D"/>
<ellipse cx="141.479" cy="142.665" rx="129.317" ry="71.6251" transform="rotate(-45.8329 141.479 142.665)" fill="#6FCA6D"/>
<ellipse cx="77.8314" cy="97.6005" rx="38.5" ry="37.5" fill="#6FCA6D"/>
<ellipse cx="160.865" cy="168.473" rx="107.5" ry="82.8625" transform="rotate(-48.6101 160.865 168.473)" fill="#6FCA6D"/>
<path d="M165 150.75C178.695 150.75 189.667 139.695 189.667 126C189.667 112.305 178.695 101.25 165 101.25C151.305 101.25 140.25 112.305 140.25 126C140.25 139.695 151.305 150.75 165 150.75ZM99 150.75C112.695 150.75 123.667 139.695 123.667 126C123.667 112.305 112.695 101.25 99 101.25C85.305 101.25 74.25 112.305 74.25 126C74.25 139.695 85.305 150.75 99 150.75ZM99 167.25C79.7775 167.25 41.25 176.903 41.25 196.125V216.75H156.75V196.125C156.75 176.903 118.222 167.25 99 167.25ZM165 167.25C162.607 167.25 159.885 167.415 156.997 167.662C166.567 174.592 173.25 183.915 173.25 196.125V216.75H222.75V196.125C222.75 176.903 184.222 167.25 165 167.25Z" fill="white"/>
</svg>
