<svg width="318" height="329" viewBox="0 0 318 329" fill="none" xmlns="http://www.w3.org/2000/svg">
<ellipse cx="167.331" cy="60.1005" rx="128" ry="32" fill="#386D9D"/>
<ellipse cx="170.424" cy="179.675" rx="174.914" ry="34.1006" transform="rotate(-45.4505 170.424 179.675)" fill="#386D9D"/>
<ellipse cx="51.3314" cy="177.101" rx="129" ry="32" transform="rotate(-90 51.3314 177.101)" fill="#386D9D"/>
<ellipse cx="141.479" cy="142.665" rx="129.317" ry="71.6251" transform="rotate(-45.8329 141.479 142.665)" fill="#386D9D"/>
<ellipse cx="77.8314" cy="97.6005" rx="38.5" ry="37.5" fill="#386D9D"/>
<ellipse cx="160.865" cy="168.473" rx="107.5" ry="82.8625" transform="rotate(-48.6101 160.865 168.473)" fill="#386D9D"/>
<path d="M116.617 121.734H83.7109V213H70.2812V121.734H37.4453V110.625H116.617V121.734ZM161.195 148.594C159.227 148.266 157.094 148.102 154.797 148.102C146.266 148.102 140.477 151.734 137.43 159V213H124.422V136.922H137.078L137.289 145.711C141.555 138.914 147.602 135.516 155.43 135.516C157.961 135.516 159.883 135.844 161.195 136.5V148.594ZM187.352 213H174.344V136.922H187.352V213ZM173.289 116.742C173.289 114.633 173.922 112.852 175.188 111.398C176.5 109.945 178.422 109.219 180.953 109.219C183.484 109.219 185.406 109.945 186.719 111.398C188.031 112.852 188.688 114.633 188.688 116.742C188.688 118.852 188.031 120.609 186.719 122.016C185.406 123.422 183.484 124.125 180.953 124.125C178.422 124.125 176.5 123.422 175.188 122.016C173.922 120.609 173.289 118.852 173.289 116.742ZM222.367 213H209.359V136.922H222.367V213ZM208.305 116.742C208.305 114.633 208.938 112.852 210.203 111.398C211.516 109.945 213.438 109.219 215.969 109.219C218.5 109.219 220.422 109.945 221.734 111.398C223.047 112.852 223.703 114.633 223.703 116.742C223.703 118.852 223.047 120.609 221.734 122.016C220.422 123.422 218.5 124.125 215.969 124.125C213.438 124.125 211.516 123.422 210.203 122.016C208.938 120.609 208.305 118.852 208.305 116.742Z" fill="white"/>
<path d="M116.617 121.734V122.734H117.617V121.734H116.617ZM83.7109 121.734V120.734H82.7109V121.734H83.7109ZM83.7109 213V214H84.7109V213H83.7109ZM70.2812 213H69.2812V214H70.2812V213ZM70.2812 121.734H71.2812V120.734H70.2812V121.734ZM37.4453 121.734H36.4453V122.734H37.4453V121.734ZM37.4453 110.625V109.625H36.4453V110.625H37.4453ZM116.617 110.625H117.617V109.625H116.617V110.625ZM116.617 120.734H83.7109V122.734H116.617V120.734ZM82.7109 121.734V213H84.7109V121.734H82.7109ZM83.7109 212H70.2812V214H83.7109V212ZM71.2812 213V121.734H69.2812V213H71.2812ZM70.2812 120.734H37.4453V122.734H70.2812V120.734ZM38.4453 121.734V110.625H36.4453V121.734H38.4453ZM37.4453 111.625H116.617V109.625H37.4453V111.625ZM115.617 110.625V121.734H117.617V110.625H115.617ZM161.195 148.594L161.031 149.58L162.195 149.774V148.594H161.195ZM137.43 159L136.507 158.613L136.43 158.799V159H137.43ZM137.43 213V214H138.43V213H137.43ZM124.422 213H123.422V214H124.422V213ZM124.422 136.922V135.922H123.422V136.922H124.422ZM137.078 136.922L138.078 136.898L138.054 135.922H137.078V136.922ZM137.289 145.711L136.289 145.735L136.369 149.058L138.136 146.243L137.289 145.711ZM161.195 136.5H162.195V135.882L161.643 135.606L161.195 136.5ZM161.36 147.607C159.329 147.269 157.141 147.102 154.797 147.102V149.102C157.047 149.102 159.124 149.262 161.031 149.58L161.36 147.607ZM154.797 147.102C150.39 147.102 146.614 148.041 143.525 149.979C140.43 151.921 138.098 154.82 136.507 158.613L138.352 159.387C139.808 155.914 141.894 153.364 144.588 151.673C147.288 149.979 150.673 149.102 154.797 149.102V147.102ZM136.43 159V213H138.43V159H136.43ZM137.43 212H124.422V214H137.43V212ZM125.422 213V136.922H123.422V213H125.422ZM124.422 137.922H137.078V135.922H124.422V137.922ZM136.078 136.946L136.289 145.735L138.289 145.687L138.078 136.898L136.078 136.946ZM138.136 146.243C142.224 139.728 147.956 136.516 155.43 136.516V134.516C147.247 134.516 140.885 138.1 136.442 145.179L138.136 146.243ZM155.43 136.516C157.903 136.516 159.641 136.841 160.748 137.394L161.643 135.606C160.125 134.847 158.019 134.516 155.43 134.516V136.516ZM160.195 136.5V148.594H162.195V136.5H160.195ZM187.352 213V214H188.352V213H187.352ZM174.344 213H173.344V214H174.344V213ZM174.344 136.922V135.922H173.344V136.922H174.344ZM187.352 136.922H188.352V135.922H187.352V136.922ZM175.188 111.398L174.445 110.728L174.439 110.735L174.433 110.742L175.188 111.398ZM175.188 122.016L174.444 122.685L174.45 122.691L174.456 122.698L175.188 122.016ZM187.352 212H174.344V214H187.352V212ZM175.344 213V136.922H173.344V213H175.344ZM174.344 137.922H187.352V135.922H174.344V137.922ZM186.352 136.922V213H188.352V136.922H186.352ZM174.289 116.742C174.289 114.85 174.85 113.309 175.942 112.055L174.433 110.742C172.994 112.395 172.289 114.416 172.289 116.742H174.289ZM175.93 112.069C177.001 110.883 178.617 110.219 180.953 110.219V108.219C178.227 108.219 175.999 109.008 174.445 110.728L175.93 112.069ZM180.953 110.219C183.289 110.219 184.906 110.883 185.977 112.069L187.461 110.728C185.907 109.008 183.679 108.219 180.953 108.219V110.219ZM185.977 112.069C187.11 113.323 187.688 114.86 187.688 116.742H189.688C189.688 114.406 188.953 112.38 187.461 110.728L185.977 112.069ZM187.688 116.742C187.688 118.625 187.11 120.131 185.988 121.333L187.45 122.698C188.952 121.088 189.688 119.078 189.688 116.742H187.688ZM185.988 121.333C184.919 122.478 183.299 123.125 180.953 123.125V125.125C183.67 125.125 185.893 124.365 187.45 122.698L185.988 121.333ZM180.953 123.125C178.607 123.125 176.987 122.478 175.919 121.333L174.456 122.698C176.013 124.365 178.237 125.125 180.953 125.125V123.125ZM175.931 121.347C174.85 120.146 174.289 118.635 174.289 116.742H172.289C172.289 119.068 172.994 121.073 174.444 122.685L175.931 121.347ZM222.367 213V214H223.367V213H222.367ZM209.359 213H208.359V214H209.359V213ZM209.359 136.922V135.922H208.359V136.922H209.359ZM222.367 136.922H223.367V135.922H222.367V136.922ZM210.203 111.398L209.461 110.728L209.455 110.735L209.449 110.742L210.203 111.398ZM210.203 122.016L209.46 122.685L209.466 122.691L209.472 122.698L210.203 122.016ZM222.367 212H209.359V214H222.367V212ZM210.359 213V136.922H208.359V213H210.359ZM209.359 137.922H222.367V135.922H209.359V137.922ZM221.367 136.922V213H223.367V136.922H221.367ZM209.305 116.742C209.305 114.85 209.866 113.309 210.957 112.055L209.449 110.742C208.009 112.395 207.305 114.416 207.305 116.742H209.305ZM210.945 112.069C212.016 110.883 213.632 110.219 215.969 110.219V108.219C213.243 108.219 211.015 109.008 209.461 110.728L210.945 112.069ZM215.969 110.219C218.305 110.219 219.921 110.883 220.992 112.069L222.476 110.728C220.923 109.008 218.695 108.219 215.969 108.219V110.219ZM220.992 112.069C222.125 113.323 222.703 114.86 222.703 116.742H224.703C224.703 114.406 223.968 112.38 222.476 110.728L220.992 112.069ZM222.703 116.742C222.703 118.625 222.126 120.131 221.003 121.333L222.465 122.698C223.968 121.088 224.703 119.078 224.703 116.742H222.703ZM221.003 121.333C219.935 122.478 218.315 123.125 215.969 123.125V125.125C218.685 125.125 220.909 124.365 222.465 122.698L221.003 121.333ZM215.969 123.125C213.623 123.125 212.003 122.478 210.934 121.333L209.472 122.698C211.028 124.365 213.252 125.125 215.969 125.125V123.125ZM210.946 121.347C209.865 120.146 209.305 118.635 209.305 116.742H207.305C207.305 119.068 208.01 121.073 209.46 122.685L210.946 121.347Z" fill="white"/>
</svg>
